HIERARCHY
ROOT reference
{
  OFFSET 0 0 0
  CHANNELS 6 Xposition Yposition Zposition Zrotation Xrotation Yrotation
  JOINT Hips
  {
    OFFSET 26.2902 92.0376 107.14
    CHANNELS 6 Xposition Yposition Zposition Zrotation Xrotation Yrotation
    JOINT Spine
    {
      OFFSET 0 8.25043 0
      CHANNELS 6 Xposition Yposition Zposition Zrotation Xrotation Yrotation
      JOINT Spine1
      {
        OFFSET 0 26.9735 0
        CHANNELS 6 Xposition Yposition Zposition Zrotation Xrotation Yrotation
        JOINT Neck
        {
          OFFSET 0 26.8627 2.44206
          CHANNELS 6 Xposition Yposition Zposition Zrotation Xrotation Yrotation
          JOINT Head
          {
            OFFSET 0 14.0861 -2.0123
            CHANNELS 6 Xposition Yposition Zposition Zrotation Xrotation Yrotation
            End Site
            {
              OFFSET 0 25.1537 0
            }
          }
        }
        JOINT LeftShoulder
        {
          OFFSET 4.03461 23.8974 -0.31355
          CHANNELS 6 Xposition Yposition Zposition Zrotation Xrotation Yrotation
          JOINT LeftArm
          {
            OFFSET 14.6104 0 0
            CHANNELS 6 Xposition Yposition Zposition Zrotation Xrotation Yrotation
            JOINT LeftForeArm
            {
              OFFSET 28.8903 0 0
              CHANNELS 6 Xposition Yposition Zposition Zrotation Xrotation Yrotation
              JOINT LeftHand
              {
                OFFSET 28.8168 0 0
                CHANNELS 6 Xposition Yposition Zposition Zrotation Xrotation Yrotation
                End Site
                {
                  OFFSET 15.0922 0 0
                }
              }
            }
          }
        }
        JOINT RightShoulder
        {
          OFFSET -4.01401 23.8974 -0.31355
          CHANNELS 6 Xposition Yposition Zposition Zrotation Xrotation Yrotation
          JOINT RightArm
          {
            OFFSET -14.6104 0 0
            CHANNELS 6 Xposition Yposition Zposition Zrotation Xrotation Yrotation
            JOINT RightForeArm
            {
              OFFSET -28.8903 0 0
              CHANNELS 6 Xposition Yposition Zposition Zrotation Xrotation Yrotation
              JOINT RightHand
              {
                OFFSET -28.8168 0 0
                CHANNELS 6 Xposition Yposition Zposition Zrotation Xrotation Yrotation
                End Site
                {
                  OFFSET -15.0922 0 0
                }
              }
            }
          }
        }
      }
    }
    JOINT LeftUpLeg
    {
      OFFSET 10.0615 0 0
      CHANNELS 6 Xposition Yposition Zposition Zrotation Xrotation Yrotation
      JOINT LeftLeg
      {
        OFFSET 0 -36.0896 0
        CHANNELS 6 Xposition Yposition Zposition Zrotation Xrotation Yrotation
        JOINT LeftFoot
        {
          OFFSET 0 -47.1136 0
          CHANNELS 6 Xposition Yposition Zposition Zrotation Xrotation Yrotation
          JOINT LeftToeBase
          {
            OFFSET 0 -6.53997 15.0922
            CHANNELS 6 Xposition Yposition Zposition Zrotation Xrotation Yrotation
            End Site
            {
              OFFSET 0 0 4.0246
            }
          }
        }
      }
    }
    JOINT RightUpLeg
    {
      OFFSET -10.0615 0 0
      CHANNELS 6 Xposition Yposition Zposition Zrotation Xrotation Yrotation
      JOINT RightLeg
      {
        OFFSET 0 -36.0896 0
        CHANNELS 6 Xposition Yposition Zposition Zrotation Xrotation Yrotation
        JOINT RightFoot
        {
          OFFSET 0 -47.1136 0
          CHANNELS 6 Xposition Yposition Zposition Zrotation Xrotation Yrotation
          JOINT RightToeBase
          {
            OFFSET 0 -6.53997 15.0922
            CHANNELS 6 Xposition Yposition Zposition Zrotation Xrotation Yrotation
            End Site
            {
              OFFSET 0 0 4.0246
            }
          }
        }
      }
    }
  }
}
MOTION
Frames:	8
Frame Time:	0.004
0 0 0 0 0 -0 -11.3174 39.4252 -178.225 10.1531 -6.70749 -9.42836 -7.10543e-015 8.25043 0 -23.8842 55.8704 15.6444 0 26.9735 0 -5.34777 27.196 4.1403 1.77636e-015 26.8627 2.44206 6.95655 1.22824 19.8981 -1.77636e-015 14.0861 -2.0123 -15.2021 -34.7535 13.144 4.03461 23.8974 -0.31355 5.33936 -0.179309 -23.0037 14.6104 -1.42109e-014 1.42109e-014 0.69444 8.72572 -53.9915 28.8903 0 1.77636e-015 8.44915 -4.6953 -12.3042 28.8168 0 0 47.7598 -1.14367 5.96594 -4.01401 23.8974 -0.31355 -13.329 -2.0126 21.4399 -14.6104 0 0 3.01337 11.8373 59.6544 -28.8903 0 7.10543e-015 -10.5461 2.44144 3.84448 -28.8168 1.42109e-014 0 -30.597 6.86817 -14.8533 10.0615 0 0 46.1553 -76.0912 61.2128 -8.88178e-016 -36.0896 0 -178.471 53.6544 154.279 0 -47.1136 -1.42109e-014 24.1425 -34.0776 26.4656 0 -6.53997 15.0922 5.51738e-033 -3.97569e-016 7.95139e-016 -10.0615 1.42109e-014 0 -18.9372 2.0606 10.6447 3.55271e-015 -36.0896 0 -140.217 72.745 157.7 -3.55271e-015 -47.1136 0 -7.96748 -32.4421 8.60033 7.10543e-015 -6.53997 15.0922 -3.18055e-015 -1.59028e-015 7.95139e-016 
0 0 0 0 0 -0 -11.2611 39.4845 -178.211 10.2466 -6.62025 -9.41314 0 8.25043 2.84217e-014 -23.8174 55.8877 15.5571 0 26.9735 0 -5.35003 27.1535 4.08338 -8.88178e-016 26.8627 2.44206 6.92429 1.14671 19.8892 1.77636e-015 14.0861 -2.0123 -15.1882 -34.6471 13.1543 4.03461 23.8974 -0.31355 5.34067 -0.282416 -23.0444 14.6104 1.42109e-014 -1.42109e-014 0.671471 8.84321 -53.9829 28.8903 2.84217e-014 -3.55271e-015 8.41678 -4.70315 -12.3205 28.8168 1.42109e-014 -8.88178e-016 47.7921 -1.13491 6.00398 -4.01401 23.8974 -0.31355 -13.3288 -1.99619 21.4297 -14.6104 -1.42109e-014 1.42109e-014 3.10166 11.7416 59.5679 -28.8903 2.84217e-014 7.10543e-015 -10.5144 2.50145 3.95008 -28.8168 -1.42109e-014 7.10543e-015 -30.6153 6.93813 -14.8503 10.0615 0 0 45.6081 -76.1626 60.6419 -4.44089e-016 -36.0896 7.10543e-015 -178.17 53.7855 153.989 0 -47.1136 -1.42109e-014 24.3016 -34.0779 26.6357 0 -6.53997 15.0922 2.75869e-033 1.98785e-016 -7.95139e-016 -10.0615 0 2.84217e-014 -19.0987 2.06728 10.7049 0 -36.0896 0 -139.812 72.9476 157.276 0 -47.1136 7.10543e-015 -7.81914 -32.5332 8.78494 1.42109e-014 -6.53997 15.0922 -3.18055e-015 -3.18055e-015 -3.18055e-015 
0 0 0 0 0 -0 -11.2219 39.5406 -178.198 10.3192 -6.51197 -9.44018 0 8.25043 0 -23.8528 55.8472 15.5554 0 26.9735 0 -5.30509 27.122 4.06078 8.88178e-016 26.8627 2.44206 6.81173 1.02319 19.8728 -1.77636e-015 14.0861 -2.0123 -15.0647 -34.5297 13.2145 4.03461 23.8974 -0.31355 5.44876 -0.084024 -22.9658 14.6104 1.42109e-014 0 0.636117 8.59341 -54.1301 28.8903 0 0 8.36765 -4.6816 -12.2771 28.8168 0 -1.77636e-015 47.8532 -1.11661 6.00704 -4.01401 23.8974 -0.31355 -13.3499 -2.00792 21.4238 -14.6104 0 0 3.1833 11.7044 59.4783 -28.8903 0 0 -10.5159 2.53067 4.05207 -28.8168 0 0 -30.6183 6.97967 -14.8601 10.0615 0 0 45.4298 -76.2009 60.468 8.88178e-016 -36.0896 7.10543e-015 -177.967 53.8823 153.739 -7.10543e-015 -47.1136 -1.42109e-014 24.4218 -34.0186 26.7947 0 -6.53997 15.0922 -2.48481e-017 1.98785e-016 -7.95139e-016 -10.0615 7.10543e-015 0 -19.2089 2.03702 10.8196 3.55271e-015 -36.0896 0 -139.544 73.1485 156.983 0 -47.1136 7.10543e-015 -7.76888 -32.6293 8.91673 0 -6.53997 15.0922 3.18055e-015 3.18055e-015 2.38542e-015 
0 0 0 0 0 -0 -11.1922 39.5963 -178.185 10.3738 -6.40461 -9.46917 0 8.25043 0 -23.8991 55.8178 15.5748 3.55271e-015 26.9735 0 -5.26109 27.0675 4.04938 8.88178e-016 26.8627 2.44206 6.75115 0.936927 19.8402 0 14.0861 -2.0123 -14.9936 -34.4247 13.2282 4.03461 23.8974 -0.31355 5.48285 -0.088436 -22.9908 14.6104 0 0 0.574255 8.56961 -54.1543 28.8903 0 -3.55271e-015 8.3172 -4.64503 -12.2695 28.8168 -1.42109e-014 0 47.8752 -1.07782 6.02219 -4.01401 23.8974 -0.31355 -13.3536 -1.99707 21.423 -14.6104 0 0 3.24891 11.693 59.3474 -28.8903 -2.84217e-014 -1.42109e-014 -10.5699 2.5688 4.21838 -28.8168 0 7.10543e-015 -30.5636 7.03854 -14.9014 10.0615 7.10543e-015 0 45.2765 -76.2279 60.3143 -4.44089e-016 -36.0896 3.55271e-015 -177.802 53.9834 153.51 7.10543e-015 -47.1136 0 24.543 -33.9854 26.9609 0 -6.53997 15.0922 0 1.98785e-016 -0 -10.0615 -7.10543e-015 0 -19.2653 2.02194 10.8832 -3.55271e-015 -36.0896 2.84217e-014 -139.097 73.304 156.494 0 -47.1136 7.10543e-015 -7.63354 -32.7382 9.04516 -7.10543e-015 -6.53997 15.0922 3.18055e-015 -3.18055e-015 -1.59028e-015 
0 0 0 0 0 -0 -11.1576 39.6584 -178.174 10.4376 -6.29681 -9.48314 7.10543e-015 8.25043 0 -23.9111 55.811 15.5567 0 26.9735 0 -5.23119 26.9971 4.01597 8.88178e-016 26.8627 2.44206 6.71327 0.987663 19.7573 -5.32907e-015 14.0861 -2.0123 -15.0775 -34.4429 13.111 4.03461 23.8974 -0.31355 5.50959 -0.102573 -23.0027 14.6104 0 1.42109e-014 0.542265 8.59115 -54.169 28.8903 0 -5.32907e-015 8.27818 -4.63932 -12.2763 28.8168 0 0 47.9127 -1.06627 6.03831 -4.01401 23.8974 -0.31355 -13.3408 -1.93727 21.3907 -14.6104 0 1.42109e-014 3.25899 11.6055 59.3183 -28.8903 0 0 -10.5503 2.61203 4.29752 -28.8168 1.42109e-014 0 -30.5867 7.08229 -14.8689 10.0615 -7.10543e-015 0 44.9926 -76.2648 60.0266 0 -36.0896 1.42109e-014 -177.583 54.0908 153.309 0 -47.1136 0 24.6823 -33.9658 27.1187 0 -6.53997 15.0922 -2.48481e-017 0 -0 -10.0615 -7.10543e-015 0 -19.3266 2.00066 10.9104 -3.55271e-015 -36.0896 0 -138.591 73.4431 155.933 0 -47.1136 -7.10543e-015 -7.55355 -32.8141 9.16918 7.10543e-015 -6.53997 15.0922 -3.18055e-015 1.59028e-015 2.38542e-015 
0 0 0 0 0 -0 -11.1245 39.7223 -178.16 10.4896 -6.23355 -9.48732 -7.10543e-015 8.25043 0 -23.931 55.8588 15.5565 0 26.9735 2.84217e-014 -5.20444 26.9244 3.98213 -1.77636e-015 26.8627 2.44206 6.71405 1.10038 19.7394 3.55271e-015 14.0861 -2.0123 -15.2654 -34.5989 12.9967 4.03461 23.8974 -0.31355 5.52679 -0.152135 -23.0096 14.6104 0 0 0.490627 8.6247 -54.189 28.8903 0 -5.32907e-015 8.22824 -4.61401 -12.2871 28.8168 -1.42109e-014 8.88178e-016 47.981 -1.02947 6.06454 -4.01401 23.8974 -0.31355 -13.3445 -1.93217 21.3851 -14.6104 -1.42109e-014 1.42109e-014 3.4468 11.474 59.2237 -28.8903 0 -7.10543e-015 -10.5044 2.72326 4.4112 -28.8168 0 7.10543e-015 -30.6625 7.20099 -14.8292 10.0615 -7.10543e-015 -2.84217e-014 44.5304 -76.2729 59.5531 4.44089e-016 -36.0896 -7.10543e-015 -177.399 54.2091 153.075 0 -47.1136 1.42109e-014 24.8153 -33.9546 27.2728 0 -6.53997 15.0922 2.48481e-017 -3.97569e-016 -0 -10.0615 0 0 -19.377 2.03482 10.9738 0 -36.0896 -2.84217e-014 -138.135 73.5988 155.465 0 -47.1136 0 -7.47993 -32.8893 9.2454 7.10543e-015 -6.53997 15.0922 6.36111e-015 -3.18055e-015 5.56597e-015 
0 0 0 0 0 -0 -11.0994 39.787 -178.143 10.5327 -6.16827 -9.50659 0 8.25043 0 -23.9989 55.8905 15.5996 0 26.9735 0 -5.15467 26.8527 3.96415 -3.55271e-015 26.8627 2.44206 6.68108 1.03703 19.7481 1.77636e-015 14.0861 -2.0123 -15.2711 -34.5073 13.0163 4.03461 23.8974 -0.31355 5.54047 -0.125422 -23.04 14.6104 -1.42109e-014 0 0.491745 8.6025 -54.1898 28.8903 2.84217e-014 -1.77636e-015 8.17663 -4.6167 -12.3007 28.8168 -1.42109e-014 -1.77636e-015 48.045 -1.01613 6.10157 -4.01401 23.8974 -0.31355 -13.3475 -1.93265 21.3899 -14.6104 1.42109e-014 0 3.51647 11.4581 59.1245 -28.8903 0 0 -10.5255 2.76899 4.51952 -28.8168 -1.42109e-014 7.10543e-015 -30.6707 7.26204 -14.8428 10.0615 7.10543e-015 -2.84217e-014 43.6846 -76.0503 58.8792 4.44089e-016 -36.0896 0 -177.419 54.4178 152.756 -7.10543e-015 -47.1136 1.42109e-014 25.5325 -34.0891 27.9523 -3.55271e-015 -6.53997 15.0922 2.48481e-017 -3.97569e-016 -1.59028e-015 -10.0615 -7.10543e-015 0 -19.4019 2.05958 11.0379 -3.55271e-015 -36.0896 -2.84217e-014 -137.659 73.7352 154.94 3.55271e-015 -47.1136 7.10543e-015 -7.39661 -32.947 9.34004 0 -6.53997 15.0922 -2.64834e-031 4.77083e-015 3.18055e-015 
0 0 0 0 0 -0 -11.0797 39.85 -178.133 10.5556 -6.07341 -9.52373 -7.10543e-015 8.25043 -2.84217e-014 -23.9994 55.8979 15.589 0 26.9735 -2.84217e-014 -5.1269 26.7937 3.94197 2.66454e-015 26.8627 2.44206 6.60323 0.855556 19.7752 -1.77636e-015 14.0861 -2.0123 -15.1371 -34.3051 13.1299 4.03461 23.8974 -0.31355 5.57101 -0.11453 -23.0168 14.6104 0 0 0.484241 8.58966 -54.2179 28.8903 2.84217e-014 0 8.13075 -4.61639 -12.3264 28.8168 -1.42109e-014 8.88178e-016 48.095 -0.994558 6.14892 -4.01401 23.8974 -0.31355 -13.3635 -1.95446 21.3997 -14.6104 2.84217e-014 0 3.57058 11.4804 59.0501 -28.8903 0 0 -10.5752 2.79101 4.61879 -28.8168 0 0 -30.6679 7.30596 -14.8838 10.0615 -7.10543e-015 0 43.4437 -76.0435 58.6397 0 -36.0896 7.10543e-015 -177.298 54.5304 152.561 0 -47.1136 0 25.7255 -34.0601 28.173 -3.55271e-015 -6.53997 15.0922 2.48481e-017 0 -7.95139e-016 -10.0615 0 0 -19.3929 2.07105 11.184 -3.55271e-015 -36.0896 0 -137.406 73.9471 154.63 3.55271e-015 -47.1136 -7.10543e-015 -7.31996 -33.0511 9.43933 0 -6.53997 15.0922 -3.18055e-015 -1.59028e-015 -7.95139e-016 
